<?xml version="1.0" standalone="no"?>
<!DOCTYPE svg PUBLIC "-//W3C//DTD SVG 20010904//EN"
 "http://www.w3.org/TR/2001/REC-SVG-20010904/DTD/svg10.dtd">
<svg version="1.0" xmlns="http://www.w3.org/2000/svg"
 width="500.000000pt" height="500.000000pt" viewBox="0 0 500.000000 500.000000"
 preserveAspectRatio="xMidYMid meet">

<g transform="translate(0.000000,500.000000) scale(0.100000,-0.100000)"
fill="#000000" stroke="none">
<path d="M2149 3343 c-6 -16 -87 -233 -181 -483 -94 -250 -174 -459 -179 -464
-11 -12 1 -43 -184 504 l-151 445 -37 3 c-20 2 -37 2 -37 -1 0 -2 61 -183 136
-403 75 -219 163 -480 196 -579 65 -191 65 -192 74 -182 3 3 89 223 190 488
101 265 185 484 188 486 9 9 6 16 221 -552 46 -121 87 -229 91 -239 6 -16 4
-18 -11 -12 -21 8 -35 -8 -35 -41 0 -16 11 -25 44 -38 35 -14 47 -24 59 -57
15 -37 37 -45 37 -13 0 24 16 25 111 4 111 -25 270 -29 349 -10 158 39 255
138 267 273 16 172 -85 265 -364 334 -75 18 -138 35 -140 38 -3 3 29 104 71
226 42 122 76 224 76 227 0 16 196 -34 263 -68 l37 -19 0 39 c0 39 -1 40 -57
61 -106 39 -184 53 -303 53 -93 0 -127 -4 -179 -22 -158 -55 -241 -164 -228
-300 9 -104 59 -170 165 -218 28 -14 52 -30 52 -36 0 -24 -127 -391 -136 -394
-5 -2 -92 217 -193 487 -101 269 -188 490 -193 490 -5 0 -13 -12 -19 -27z
m646 -255 c-40 -117 -77 -214 -84 -216 -15 -5 -90 40 -123 75 -37 38 -52 109
-36 170 17 70 86 135 169 162 35 11 83 20 105 20 l42 1 -73 -212z m117 -347
c204 -51 277 -96 304 -188 33 -114 -16 -207 -146 -271 -52 -25 -63 -27 -190
-27 -142 0 -286 25 -277 49 2 6 39 113 82 239 58 170 82 227 94 227 9 0 69
-13 133 -29z"/>
<path d="M1840 1617 c0 -23 34 -137 41 -137 5 0 14 20 20 45 6 25 15 45 19 45
4 0 11 -20 14 -45 9 -60 23 -65 36 -13 6 24 15 56 21 72 5 16 7 31 4 34 -5 5
-8 -2 -28 -73 l-14 -50 -13 58 c-7 31 -17 57 -21 57 -4 0 -12 -22 -19 -50 -14
-57 -25 -57 -35 -2 -5 34 -24 79 -25 59z"/>
<path d="M2054 1606 c-3 -7 -4 -40 -2 -72 l3 -59 45 -1 45 -2 -40 7 c-34 5
-40 10 -43 33 -3 24 0 27 35 31 l38 4 -38 1 c-36 2 -38 4 -35 30 3 23 9 28 43
33 l40 6 -43 2 c-28 1 -44 -4 -48 -13z"/>
<path d="M2207 1613 c-4 -3 -7 -16 -6 -27 0 -20 1 -20 9 2 15 37 86 25 78 -14
-3 -15 -12 -19 -46 -19 l-43 0 3 -40 c3 -38 5 -40 39 -43 27 -2 40 3 55 20
l19 23 -22 -18 c-13 -11 -33 -17 -50 -15 -23 2 -28 8 -29 31 -1 24 3 27 30 27
18 0 37 -5 42 -10 14 -14 16 61 2 78 -11 13 -70 17 -81 5z"/>
<path d="M2470 1601 c-12 -23 -4 -51 15 -51 7 0 23 -9 36 -19 23 -19 23 -21 7
-37 -15 -15 -21 -16 -44 -5 -24 11 -26 10 -14 -3 15 -19 40 -20 64 -3 26 19
13 50 -29 70 -19 9 -35 20 -35 24 1 22 20 35 44 31 14 -3 23 -1 20 3 -10 16
-53 9 -64 -10z"/>
<path d="M2617 1613 c20 -4 22 -11 26 -76 l3 -72 2 72 c2 66 4 72 25 76 12 2
0 4 -28 4 -27 0 -40 -2 -28 -4z"/>
<path d="M2756 1604 c-23 -22 -21 -96 2 -117 40 -37 82 -5 82 61 0 44 -19 72
-50 72 -10 0 -26 -7 -34 -16z m62 -6 c15 -15 16 -72 2 -99 -6 -10 -19 -19 -30
-19 -24 0 -40 29 -40 72 0 37 15 58 40 58 9 0 21 -5 28 -12z"/>
<path d="M2912 1543 c1 -43 3 -61 5 -40 6 50 36 51 64 2 27 -45 34 -45 12 -1
-15 32 -15 36 1 51 9 9 16 20 16 25 0 20 -34 40 -66 40 l-34 0 2 -77z m78 52
c18 -21 -4 -45 -41 -45 -26 0 -29 4 -29 30 0 26 3 30 29 30 16 0 34 -7 41 -15z"/>
<path d="M3070 1545 l0 -75 43 2 42 1 -37 4 c-34 4 -38 7 -38 33 0 25 4 29 33
33 l32 4 -32 1 c-29 2 -33 5 -33 31 0 28 3 30 43 34 l42 4 -47 1 -48 2 0 -75z"/>
</g>
</svg>
